<svg xmlns="http://www.w3.org/2000/svg" height="24" viewBox="0 -960 960 960" width="24" fill="#500724"><path d="M480-262.309q73.384 0 125.538-52.153Q657.691-366.616 657.691-440q0-73.384-52.153-125.538Q553.384-617.691 480-617.691q-40.308 0-72.539 16.307-32.23 16.308-55.922 40.308v-65.077h-47.692v149.999h149.999v-47.692h-71.231q16.231-19.923 41.769-33.038Q449.923-570 480-570q54 0 92 38t38 92q0 54-38 92t-92 38q-44 0-77-25.5T356-400h-49.691q15.154 61.538 62.999 99.615Q417.154-262.309 480-262.309ZM252.309-100.001q-30.308 0-51.308-21t-21-51.308v-615.382q0-30.308 21-51.308t51.308-21h299.229l228.461 228.461v459.229q0 30.308-21 51.308t-51.308 21H252.309Zm0-59.999h455.382q4.616 0 8.463-3.846 3.846-3.847 3.846-8.463V-606L526-800H252.309q-4.616 0-8.463 3.846-3.846 3.847-3.846 8.463v615.382q0 4.616 3.846 8.463 3.847 3.846 8.463 3.846ZM240-160V-800v640Z"/></svg>