<svg xmlns="http://www.w3.org/2000/svg" height="48" viewBox="0 -960 960 960" width="48"><path d="M351.104-174.386q-23.834 0-41.276-17.614-17.442-17.615-17.442-40.365 0-24.75 17.53-41.692 17.531-16.942 41.365-16.942 23.834 0 40.776 16.822 16.942 16.823 16.942 41.865 0 23.042-17.03 40.484-17.031 17.442-40.865 17.442Zm258.615 0q-23.834 0-41.276-17.614-17.442-17.615-17.442-40.365 0-24.75 17.53-41.692 17.531-16.942 41.365-16.942 23.834 0 40.776 16.822 16.942 16.823 16.942 41.865 0 23.042-17.03 40.484-17.031 17.442-40.865 17.442ZM351.104-421.693q-23.834 0-41.276-17.531-17.442-17.53-17.442-41.365 0-23.834 17.53-40.776 17.531-16.942 41.365-16.942 23.834 0 40.776 17.031 16.942 17.03 16.942 40.865 0 23.834-17.03 41.276-17.031 17.442-40.865 17.442Zm258.615 0q-23.834 0-41.276-17.531-17.442-17.53-17.442-41.365 0-23.834 17.53-40.776 17.531-16.942 41.365-16.942 23.834 0 40.776 17.031 16.942 17.03 16.942 40.865 0 23.834-17.03 41.276-17.031 17.442-40.865 17.442ZM351.104-669.001q-23.834 0-41.276-17.53-17.442-17.531-17.442-41.365 0-23.834 17.53-40.776 17.531-16.942 41.365-16.942 23.834 0 40.776 17.03 16.942 17.031 16.942 40.865 0 23.834-17.03 41.276-17.031 17.442-40.865 17.442Zm258.615 0q-23.834 0-41.276-17.53-17.442-17.531-17.442-41.365 0-23.834 17.53-40.776 17.531-16.942 41.365-16.942 23.834 0 40.776 17.03 16.942 17.031 16.942 40.865 0 23.834-17.03 41.276-17.031 17.442-40.865 17.442Z"/></svg>