<svg xmlns="http://www.w3.org/2000/svg" height="24" viewBox="0 -960 960 960" width="24"><path d="M212.309-140.001q-29.923 0-51.115-21.193-21.193-21.192-21.193-51.115v-375.382q0-29.923 21.193-51.115 21.192-21.193 51.115-21.193h142.306V-600H212.309q-5.385 0-8.847 3.462-3.462 3.462-3.462 8.847v375.382q0 5.385 3.462 8.847 3.462 3.462 8.847 3.462h535.382q5.385 0 8.847-3.462 3.462-3.462 3.462-8.847v-375.382q0-5.385-3.462-8.847-3.462-3.462-8.847-3.462H605.385v-59.999h142.306q29.923 0 51.115 21.193 21.193 21.192 21.193 51.115v375.382q0 29.923-21.193 51.115-21.192 21.193-51.115 21.193H212.309ZM480-333.847 333.847-480 376-522.153l74.001 73.386v-481.231h59.998v481.231L584-522.153 626.153-480 480-333.847Z"/></svg>