<?xml version="1.0" encoding="UTF-8"?><svg id="Ebene_1" xmlns="http://www.w3.org/2000/svg" viewBox="0 0 738.54 240.48"><defs><style>.cls-1{fill:#1d85c7;}</style></defs><g><path class="cls-1" d="m217.52,205.03l-69.57-124.8c-.24-.48-.44-.88-.63-1.26-1.83-3.66-2.94-5.87-2.94-10.96,0-.17,0-.33-.01-.5,0-.19-.01-.39-.01-.59v-12.3s0-2.71,0-5.41v-3.72s.01-1.23.01-1.23c0-.59,0-1.32.84-1.51,9.94-2.25,17.03-11.29,16.86-21.49-.2-11.72-10.16-21.26-22.19-21.26h-60.1c-6.76,0-13.01,3.08-17.15,8.46-4.14,5.37-5.49,12.31-3.72,19.04,2.45,9.29,11.04,15.78,20.89,15.78h.06c1.25,0,2.44-.61,3.17-1.62.75-1.03.94-2.36.52-3.64-.5-1.52-2.02-2.57-3.72-2.57h-.06c-4.05,0-7.89-1.78-10.52-4.87-2.63-3.09-3.76-7.19-3.1-11.23,1.07-6.56,7.08-11.51,13.99-11.51h59.89c7.09,0,13.15,5.1,14.08,11.86.55,3.99-.64,8-3.26,11.01-2.63,3.02-6.42,4.75-10.41,4.75-2.14,0-3.91,1.85-3.91,4.03v26.87c0,9,.78,10.73,4.44,17.44l69.67,124.97c1.41,2.81,1.98,5.83,1.69,9-.75,8.35-8.13,14.9-16.8,14.9h-38.31c-1.17,0-2.28.52-3.02,1.43-.76.92-1.05,2.09-.81,3.29.35,1.8,2.06,3.11,4.05,3.11h38.48c13.4,0,24.31-10.9,24.31-24.31,0-3.82-.91-7.63-2.63-11.02l-.07-.13Z"/><path class="cls-1" d="m165.19,169.52c0-14.54-5.64-28.27-15.87-38.66-10.22-10.38-23.85-16.21-38.36-16.44-.11,0-.18,0-.25,0h-.63c-.07,0-.14,0-.21,0-14.55.23-28.17,6.07-38.4,16.44-10.23,10.39-15.87,24.12-15.87,38.66,0,11.08,3.69,22.17,10.96,32.97,6.15,9.13,8.9,15.92,8.92,22,0,2.68-.67,4.72-2.01,6.07-1.73,1.74-4.31,2.1-6.17,2.1H24.7c-9.04,0-16.6-7.16-16.86-15.97-.08-2.78.5-5.44,1.73-7.89L83.11,76.71c.51-.91.63-1.97.34-2.98-.29-1.01-.95-1.84-1.86-2.35-.58-.32-1.24-.5-1.9-.5-1.42,0-2.73.77-3.42,2.01L2.7,205.03s-.05.08-.07.13c-1.72,3.39-2.64,7.2-2.64,11.02,0,13.4,10.9,24.31,24.31,24.31h42.99c4.79,0,8.85-1.52,11.72-4.4,1.97-1.97,4.31-5.59,4.29-11.62-.02-7.72-3.19-15.85-10.25-26.34-6.38-9.49-9.62-19.11-9.62-28.6,0-25.89,21.06-47.1,46.96-47.28,25.91.17,46.97,21.38,46.97,47.28,0,9.49-3.24,19.12-9.62,28.6-4.4,6.54-7.07,11.6-8.63,16.4-1.03,2.96-3.81,4.94-6.93,4.94-4.1,0-7.44-3.28-7.44-7.31,0-.12,0-.24-.02-.36,0-.06-.55-5.99-.56-9.61,0-1-.02-2.14-.07-3.6l-.03-.89.87-.19c3.34-.74,6.03-1.65,7.76-2.62,2.35-1.21,4.04-3.32,4.81-5.96.91-3.14.44-6.69-1.26-9.49-1.82-3-5.24-4.78-9.14-4.78-.93,0-1.88.1-2.82.3-4.2.89-7.2,3.73-7.85,7.42-.33,1.91-.48,4.34-.44,7.65v1s-.99.09-.99.09c-1.26.11-2.4.16-3.38.16-.33,0-.64,0-.93-.02-1.73-.08-3.74-.24-5.8-.47l-.97-.11v-.98c.03-1.72.05-3.55.08-5.49.06-4.09-3.43-7.96-8.29-9.21-1.18-.3-2.34-.46-3.45-.46-3.7,0-6.77,1.69-8.64,4.75-1.63,2.67-2.11,6.23-1.25,9.28.76,2.68,2.54,4.87,5.02,6.16,1.69.95,4.29,1.78,7.76,2.49l.87.18v.89c-.03,2.67-.04,4.98-.06,6.99-.07,10.33-.09,13.11-.67,17.19-.15,1.09.16,2.2.86,3.04.71.86,1.72,1.36,2.84,1.42.06,0,.12,0,.18,0,1.94,0,3.62-1.54,3.9-3.58.62-4.49.65-7.62.71-18.01.01-1.67.02-3.53.04-5.62v-1.18s1.19.12,1.19.12c3.12.31,5.3.42,5.32.42.38.02.8.03,1.23.03,1.06,0,2.26-.05,3.57-.15l1.13-.09.03,1.13c.02.78.03,1.52.03,2.22.01,3.63.48,9.05.57,10.11v.04s0,.04,0,.04c.12,8.22,6.97,14.91,15.27,14.91,6.48,0,12.25-4.12,14.34-10.25,0,0,3.78-8.69,7.71-14.54,7.27-10.8,10.96-21.89,10.96-32.97Zm-69.07,18.55l-.02,1.36-1.32-.32c-1.68-.41-2.85-.81-3.56-1.22-.06-.03-.12-.07-.19-.1-.61-.31-.96-.73-1.14-1.37-.3-1.07-.02-2.38.39-3.06.27-.44.76-1.02,1.96-1.02.43,0,.92.07,1.5.22,1.44.38,2.41,1.7,2.39,3.22l-.03,2.29Zm27.7.27c.01-1.18.05-2.17.13-3.03.07-.83.61-2.23,1.81-2.67.44-.16.9-.24,1.38-.24,1.09,0,2.02.42,2.43,1.09.56.92.73,2.22.43,3.24-.17.58-.46.98-.86,1.18-.08.04-.15.08-.23.12-.8.46-2.06.92-3.73,1.37l-1.37.36v-1.42Z"/></g><g><g><path class="cls-1" d="m274.73,113.28c2.24,0,4.74-.13,7.5-.4,2.76-.26,5.86-.66,9.28-1.18V9.82c-2.76-.66-5.6-1.12-8.49-1.38-2.9-.26-5.6-.4-8.1-.4-2.63,0-5.36.13-8.19.4-2.83.26-5.69.72-8.59,1.38v101.88c3.29.52,6.32.92,9.08,1.18,2.76.26,5.26.4,7.5.4Z"/><path class="cls-1" d="m375.13,110.42c7.83-2.57,14.22-6.22,19.15-10.96,4.94-4.74,8.55-10.47,10.86-17.18,2.3-6.71,3.45-14.22,3.45-22.51s-1.12-15.07-3.36-21.52c-2.24-6.45-5.79-11.95-10.66-16.49-4.87-4.54-11.09-8.06-18.66-10.56-7.57-2.5-16.69-3.75-27.35-3.75-5.4,0-11.19.3-17.37.89-6.19.59-12.05,1.22-17.57,1.88v101.49c5.53.79,10.83,1.41,15.89,1.88,5.07.46,10.83.69,17.28.69,11.06,0,20.5-1.28,28.33-3.85Zm-28.14-74.34c.66-.13,1.64-.26,2.96-.4,1.31-.13,2.76-.2,4.34-.2,6.58,0,11.65,1.94,15.2,5.82,3.55,3.88,5.33,10.04,5.33,18.46,0,9.48-1.81,16.29-5.43,20.44-3.62,4.15-9.12,6.22-16.49,6.22-1.71,0-3-.06-3.85-.2-.86-.13-1.55-.2-2.07-.2v-49.96Z"/><path class="cls-1" d="m433.38,99.36c4.28,4.67,9.8,8.33,16.59,10.96,6.78,2.63,14.91,3.95,24.38,3.95,12.24,0,24.22-2.17,35.94-6.52-.13-5.13-.89-10.07-2.27-14.81-1.38-4.74-3-8.82-4.84-12.24-4.61,1.85-9.28,3.23-14.02,4.15-4.74.92-9.02,1.38-12.83,1.38-5.92,0-10.7-1.12-14.32-3.36-3.62-2.24-6.15-6.05-7.6-11.45h60.02c.26-1.84.56-4.18.89-7.01.33-2.83.49-6.02.49-9.58,0-6.84-1.02-13.2-3.06-19.05-2.04-5.86-4.97-10.86-8.79-15.01-3.82-4.15-8.46-7.4-13.92-9.77-5.46-2.37-11.68-3.55-18.66-3.55-8.42,0-15.79,1.42-22.11,4.24-6.32,2.83-11.58,6.68-15.8,11.55-4.21,4.87-7.37,10.6-9.48,17.18-2.11,6.58-3.16,13.62-3.16,21.13s1.02,14.68,3.06,21.13c2.04,6.45,5.2,12.01,9.48,16.68Zm25.96-62.89c3.03-2.63,6.64-3.95,10.86-3.95,4.87,0,8.59,1.55,11.16,4.64,2.57,3.09,3.98,6.94,4.25,11.55h-31.59c.52-5.53,2.3-9.61,5.33-12.24Z"/><path class="cls-1" d="m539.6,99.36c4.28,4.67,9.8,8.33,16.59,10.96,6.78,2.63,14.91,3.95,24.38,3.95,12.24,0,24.22-2.17,35.94-6.52-.13-5.13-.89-10.07-2.27-14.81-1.38-4.74-3-8.82-4.84-12.24-4.61,1.85-9.28,3.23-14.02,4.15-4.74.92-9.02,1.38-12.83,1.38-5.92,0-10.7-1.12-14.32-3.36-3.62-2.24-6.15-6.05-7.6-11.45h60.02c.26-1.84.56-4.18.89-7.01.33-2.83.49-6.02.49-9.58,0-6.84-1.02-13.2-3.06-19.05-2.04-5.86-4.97-10.86-8.79-15.01-3.82-4.15-8.46-7.4-13.92-9.77-5.46-2.37-11.68-3.55-18.66-3.55-8.42,0-15.79,1.42-22.11,4.24-6.32,2.83-11.58,6.68-15.8,11.55-4.21,4.87-7.37,10.6-9.48,17.18-2.11,6.58-3.16,13.62-3.16,21.13s1.02,14.68,3.06,21.13c2.04,6.45,5.2,12.01,9.48,16.68Zm25.96-62.89c3.03-2.63,6.64-3.95,10.86-3.95,4.87,0,8.59,1.55,11.16,4.64,2.57,3.09,3.98,6.94,4.25,11.55h-31.59c.52-5.53,2.3-9.61,5.33-12.24Z"/><path class="cls-1" d="m655.01,113.28c2.1,0,4.54-.1,7.31-.3,2.76-.2,5.86-.63,9.28-1.28V37.85c.39-.26,1.41-.52,3.06-.79,1.64-.26,3.19-.39,4.64-.39,5.39,0,9.41,1.51,12.04,4.54,2.63,3.03,3.95,8.03,3.95,15.01v55.48c3.42.66,6.52,1.09,9.28,1.28,2.76.2,5.26.3,7.5.3,2.1,0,4.54-.1,7.31-.3,2.76-.2,5.86-.63,9.28-1.28v-59.04c0-9.74-1.48-17.57-4.44-23.5-2.96-5.92-6.78-10.46-11.45-13.62-4.68-3.16-9.91-5.23-15.7-6.22-5.79-.99-11.58-1.48-17.38-1.48-9.87,0-18.1.76-24.68,2.27-6.58,1.51-12.18,3.06-16.78,4.64v96.95c3.42.66,6.52,1.09,9.28,1.28,2.76.2,5.26.3,7.5.3Z"/></g><g><path class="cls-1" d="m324.12,206.4h-35.17l.19-69.97c-2.61-.62-5.28-1.05-8-1.3-2.73-.25-5.27-.37-7.63-.37-2.48,0-5.05.12-7.72.37-2.67.25-5.37.68-8.09,1.3l-.19,96.21h66.62c.62-2.48,1.02-4.81,1.21-6.98.19-2.17.28-4.25.28-6.23s-.09-4.03-.28-6.14c-.19-2.11-.59-4.4-1.21-6.89Z"/><path class="cls-1" d="m416.24,174.02c0-6.95-.99-12.93-2.98-17.96-1.99-5.02-4.81-9.15-8.47-12.37-3.66-3.23-8.09-5.61-13.3-7.17-5.21-1.55-11.04-2.33-17.49-2.33-4.72,0-10.02.5-15.91,1.49-5.89.99-11.82,2.48-17.77,4.47,0,2.48.09,4.68.28,6.61.19,1.93.5,3.79.93,5.58.43,1.8,1.05,3.57,1.86,5.3.8,1.74,1.77,3.66,2.88,5.77,4.22-1.49,8.31-2.57,12.28-3.26,3.97-.68,7.44-1.02,10.42-1.02,2.23,0,4.4.16,6.51.46,2.11.31,4.03.87,5.77,1.68,1.74.81,3.16,1.95,4.28,3.44,1.12,1.49,1.74,3.35,1.86,5.58h-11.35c-4.72,0-9.56.46-14.51,1.4-4.96.93-9.49,2.58-13.59,4.93-4.09,2.36-7.44,5.52-10.05,9.49-2.61,3.97-3.91,9-3.91,15.07s1.08,11.44,3.26,15.73c2.17,4.28,5.18,7.72,9.03,10.33,3.84,2.61,8.47,4.5,13.86,5.67,5.4,1.18,11.32,1.77,17.77,1.77,7.44,0,14.52-.68,21.21-2.05,6.7-1.36,12.4-2.73,17.12-4.09v-54.52Zm-28.84,36.47c-.99.25-2.54.5-4.65.74-2.11.25-3.72.37-4.84.37-1.61,0-3.38-.12-5.3-.37-1.92-.25-3.72-.74-5.4-1.49-1.67-.75-3.07-1.83-4.19-3.26-1.12-1.43-1.68-3.38-1.68-5.86,0-3.35,1.49-5.96,4.47-7.82,2.98-1.86,6.64-2.79,10.98-2.79h10.61v20.47Z"/><path class="cls-1" d="m524.72,204.54c0-6.33-1.68-11.23-5.02-14.7-3.35-3.47-7.63-6.14-12.84-8,3.72-2.35,6.67-5.18,8.84-8.47,2.17-3.29,3.26-7.29,3.26-12,0-9.31-3.85-16.16-11.54-20.56-7.69-4.4-19.29-6.61-34.8-6.61-2.36,0-5.12.06-8.28.19-3.16.12-6.42.31-9.77.56-3.35.25-6.64.53-9.86.84-3.23.31-6.08.65-8.56,1.02v95.65c7.32.99,14.48,1.64,21.49,1.95,7.01.31,12.68.46,17.03.46,16.5,0,28.97-2.2,37.4-6.61,8.43-4.4,12.65-12.31,12.65-23.73Zm-57.5-48.94c1.24-.12,2.76-.22,4.56-.28,1.8-.06,3.38-.09,4.74-.09,4.47,0,7.54.9,9.21,2.7,1.68,1.8,2.51,3.75,2.51,5.86,0,2.23-.81,4.37-2.42,6.42-1.61,2.05-4.78,3.07-9.49,3.07h-9.12v-17.68Zm20.66,54.15c-2.23,1.74-5.96,2.61-11.17,2.61-2.73,0-4.9-.06-6.51-.19-1.61-.12-2.61-.19-2.98-.19v-19.17h8.56c3.22,0,5.83.28,7.82.84,1.98.56,3.54,1.27,4.65,2.14,1.12.87,1.89,1.89,2.33,3.07.43,1.18.65,2.39.65,3.63,0,3.1-1.12,5.52-3.35,7.26Z"/><path class="cls-1" d="m628.84,164.25c-2.05-6.26-5.09-11.63-9.12-16.1-4.03-4.47-9.03-7.91-14.98-10.33-5.96-2.42-12.9-3.63-20.84-3.63s-14.7,1.21-20.66,3.63c-5.95,2.42-10.95,5.86-14.98,10.33-4.03,4.47-7.07,9.83-9.12,16.1-2.05,6.27-3.07,13.18-3.07,20.75s1.02,14.24,3.07,20.38c2.05,6.14,5.09,11.42,9.12,15.82,4.03,4.4,9.03,7.79,14.98,10.14,5.96,2.36,12.84,3.53,20.66,3.53s14.89-1.18,20.84-3.53c5.95-2.36,10.95-5.74,14.98-10.14,4.03-4.4,7.07-9.68,9.12-15.82,2.05-6.14,3.07-12.93,3.07-20.38s-1.02-14.48-3.07-20.75Zm-32.75,38.8c-2.67,4.22-6.73,6.33-12.19,6.33s-9.49-2.11-12.09-6.33c-2.61-4.22-3.91-10.23-3.91-18.05s1.3-14.02,3.91-18.24c2.61-4.22,6.63-6.33,12.09-6.33s9.52,2.11,12.19,6.33c2.67,4.22,4,10.3,4,18.24s-1.33,13.83-4,18.05Z"/><path class="cls-1" d="m730.26,233.39c3.04-.25,5.8-.62,8.28-1.12l-21.21-40.57c.87-.75,1.98-1.74,3.35-2.98,1.36-1.24,2.67-2.88,3.91-4.93,1.24-2.05,2.29-4.49,3.16-7.35.87-2.85,1.3-6.2,1.3-10.05,0-10.17-3.75-18.08-11.26-23.73-7.51-5.64-18.77-8.47-33.77-8.47-5.58,0-11.51.25-17.77.74-6.27.5-12.31,1.12-18.14,1.86v95.65c3.23.62,6.08,1.02,8.56,1.21,2.48.19,4.77.28,6.88.28,1.98,0,4.28-.09,6.88-.28,2.61-.19,5.52-.59,8.75-1.21v-73.13c1.24-.25,3.04-.37,5.4-.37,4.22,0,7.29,1.02,9.21,3.07,1.92,2.05,2.89,4.68,2.89,7.91s-.81,6.23-2.42,9.03c-1.61,2.79-4.59,5.43-8.93,7.91l-2.61,1.49,20.66,43.92c2.11.5,4.77.87,8,1.12,3.22.25,6.57.37,10.05.37,2.85,0,5.8-.13,8.84-.37Z"/></g></g></svg>