<svg xmlns="http://www.w3.org/2000/svg" height="48" viewBox="0 -960 960 960" width="48"><path d="M154.694-165.001q-28.254 0-49.473-21.22-21.22-21.219-21.22-49.473v-488.612q0-28.254 21.22-49.473 21.219-21.22 49.473-21.22h650.612q28.254 0 49.473 21.22 21.22 21.219 21.22 49.473v488.612q0 28.254-21.22 49.473-21.219 21.22-49.473 21.22H154.694ZM480-462.924 142.385-683.385v447.691q0 5.385 3.462 8.847 3.462 3.462 8.847 3.462h650.612q5.385 0 8.847-3.462 3.462-3.462 3.462-8.847v-447.691L480-462.924Zm0-58.691 332.615-215h-664.23l331.615 215Zm-341.615-161.77v-53.23 500.921q3 5.385 6.962 8.847 3.962 3.462 9.347 3.462h-16.309v-460Z"/></svg>