<svg xmlns="http://www.w3.org/2000/svg" height="48" viewBox="0 -960 960 960" width="48"><path d="M655-638.384v-130.922H305v130.922h-58.383V-827.69h466.766v189.306H655ZM146.924-580H813.076 146.924Zm569.19 106.154q15.347 0 26.616-11.276t11.269-26.423q0-15.148-11.211-26.417-11.212-11.269-26.481-11.269-15.539 0-26.616 11.213-11.077 11.214-11.077 26.486 0 15.147 11.077 26.417 11.077 11.269 26.423 11.269ZM655-178.385v-170.308H305v170.308h350Zm58.383 58.384H246.617V-288.77H88.541v-247.153q0-42.704 30.092-72.582 30.093-29.879 72.753-29.879h577.228q43.184 0 73.015 29.879 29.83 29.878 29.83 72.582v247.153H713.383v168.769Zm99.693-227.153v-189q0-18.845-12.995-31.346-12.996-12.5-30.848-12.5H191.386q-18.896 0-31.679 12.725-12.783 12.726-12.783 30.952v189.169h99.693v-59.922h466.766v59.922h99.693Z"/></svg>